<svg xmlns="http://www.w3.org/2000/svg" width="174.781" height="68.672" viewBox="0 0 174.781 68.672">
  <g id="Group_5" data-name="Group 5" transform="translate(-41.757 -18.085)">
    <g id="Group_4" data-name="Group 4" transform="translate(41.757 18.085)">
      <g id="Group_2" data-name="Group 2">
        <g id="Group_1" data-name="Group 1">
          <path id="Path_190" data-name="Path 190" d="M215.763,42.4a20.5,20.5,0,0,0-3.353-7.215,16.939,16.939,0,0,0-5.975-5.041,18.446,18.446,0,0,0-8.562-1.877,20.238,20.238,0,0,0-8.024,1.546,19.087,19.087,0,0,0-6.249,4.232,17.971,17.971,0,0,0-1.5,1.769l2.571-7.431H174.153l-8.242,26.9h-.149l-8.263-26.9H146.357l13.3,38.97h11.46l6.992-20.07q-.024.535-.029,1.08a22.838,22.838,0,0,0,1.334,8.1,18.236,18.236,0,0,0,3.88,6.332,16.918,16.918,0,0,0,6.165,4.083,22.178,22.178,0,0,0,8.192,1.437,20.475,20.475,0,0,0,11.2-2.945q4.446-2.822,6.713-9.243h-9.335a7.32,7.32,0,0,1-2.637,2.8,9.562,9.562,0,0,1-5.526,1.584q-4.474,0-6.846-2.282t-2.57-7.363h27.81A26.528,26.528,0,0,0,215.763,42.4Zm-27.074,1.839a11.821,11.821,0,0,1,.5-2.5,7.715,7.715,0,0,1,1.431-2.65,8.09,8.09,0,0,1,2.7-2.1,9.355,9.355,0,0,1,4.217-.845q3.874,0,5.766,2.061a11.941,11.941,0,0,1,2.613,6.035ZM89.614,40.233a9.169,9.169,0,0,1,2.814-2.944,7.525,7.525,0,0,1,4.253-1.141q6.785,0,7.793,6.55a13.49,13.49,0,0,1,.088,1.907h10.274l-.023-1.621c-.553-5.479-2.949-9.268-7.619-11.936A22.353,22.353,0,0,0,96.8,28.271a21.315,21.315,0,0,0-8.359,1.546,17.676,17.676,0,0,0-6.212,4.3,18.518,18.518,0,0,0-3.875,6.552c-.1.279-.189.564-.277.847l.013-2.43a9.022,9.022,0,0,0-1.533-5.556,10.616,10.616,0,0,0-4.008-3.278,18.246,18.246,0,0,0-5.434-1.583,43.868,43.868,0,0,0-5.888-.4,32.949,32.949,0,0,0-6.378.625A18.445,18.445,0,0,0,49.135,31a12.684,12.684,0,0,0-4.2,3.9A12.087,12.087,0,0,0,43.04,41H53.627a5.922,5.922,0,0,1,2.113-4.416,8.142,8.142,0,0,1,4.927-1.324,17.763,17.763,0,0,1,2.646.185,5.843,5.843,0,0,1,2.159.735,4.042,4.042,0,0,1,1.482,1.546,5.474,5.474,0,0,1,.545,2.687,2.828,2.828,0,0,1-.983,2.465,7.27,7.27,0,0,1-2.841,1.288,28.766,28.766,0,0,1-4.1.662q-2.314.219-4.7.588a46.152,46.152,0,0,0-4.741.994,13.536,13.536,0,0,0-4.186,1.879,9.656,9.656,0,0,0-3,3.349,11.035,11.035,0,0,0-1.186,5.337,11.787,11.787,0,0,0,.98,5.079,8.877,8.877,0,0,0,2.872,3.261,11.718,11.718,0,0,0,4.163,2.061,19.1,19.1,0,0,0,5.141.663,24.269,24.269,0,0,0,7.013-1.031,13.261,13.261,0,0,0,5.891-3.431,16.523,16.523,0,0,0,.254,1.99,2.246,2.246,0,0,0,2.217,1.786H78v-11.7c.117.361.24.717.378,1.068a18.07,18.07,0,0,0,3.917,6.146,17.457,17.457,0,0,0,6.129,4.01,21.248,21.248,0,0,0,7.932,1.437,19.614,19.614,0,0,0,13.513-4.977,14.924,14.924,0,0,0,4.968-10.3V50.9H104.562a13.51,13.51,0,0,1-.088,1.88c-.361,2.356-.913,4.232-2.286,5.631a7.856,7.856,0,0,1-5.865,2.1,7.522,7.522,0,0,1-4.169-1.1,8.223,8.223,0,0,1-2.705-2.835,12.781,12.781,0,0,1-1.432-3.864,20.351,20.351,0,0,1-.424-4.2,21.305,21.305,0,0,1,.471-4.3A12.67,12.67,0,0,1,89.614,40.233ZM67.43,52.636a20.2,20.2,0,0,1-.2,2.356A7.879,7.879,0,0,1,66.208,57.9a7.014,7.014,0,0,1-2.548,2.466,9.5,9.5,0,0,1-4.853,1.03,13.46,13.46,0,0,1-2.459-.221,6.009,6.009,0,0,1-2.083-.772,3.929,3.929,0,0,1-1.408-1.509,4.845,4.845,0,0,1-.509-2.356,5.042,5.042,0,0,1,.536-2.429,4.769,4.769,0,0,1,1.388-1.582,7.068,7.068,0,0,1,2.018-.995,19.73,19.73,0,0,1,2.353-.59q1.267-.218,2.536-.367t2.426-.367a17.536,17.536,0,0,0,2.164-.554,4.805,4.805,0,0,0,1.683-.919Zm60.292-24.249h0l-3.448-10.3h-6v3.056h0L118.243,26l-.016,2.386L105,28.305a17.129,17.129,0,0,1,9.644,8.419l3.528.082,0,.775-.117,21.164A9.586,9.586,0,0,0,119,63.383a6.783,6.783,0,0,0,2.633,2.723A9.758,9.758,0,0,0,125.5,67.3l14.857-.009-2.576-7.846c-.111,0-5.315.039-6.109-.109a6.217,6.217,0,0,1-2.132-.628,3.939,3.939,0,0,1-1.408-1.51,5.463,5.463,0,0,1-.458-2.44c.014-2.326.087-17.382.023-18.092h6.849L144.5,67.4h10.942L142.26,28.387Z" transform="translate(-41.757 -18.085)" fill="#f1c229"/>
        </g>
      </g>
      <path id="Path_191" data-name="Path 191" d="M142.972,26.5l-2.849-8.419H129.363L132.17,26.5Z" transform="translate(-42.748 -18.085)" fill="#f1c229"/>
      <path id="Path_192" data-name="Path 192" d="M158.025,26.5l-2.849-8.419H144.04l2.807,8.419Z" transform="translate(-42.914 -18.085)" fill="#f1c229"/>
      <g id="Group_3" data-name="Group 3" transform="translate(136.35 55.62)">
        <path id="Path_193" data-name="Path 193" d="M184.69,77.721a6.854,6.854,0,0,1,3.152.729l-1.125,2.567a3.734,3.734,0,0,0-1.9-.507,2.071,2.071,0,1,0,0,4.135,3.744,3.744,0,0,0,1.9-.507l1.125,2.566a6.843,6.843,0,0,1-3.152.73,4.858,4.858,0,1,1,0-9.711Z" transform="translate(-179.667 -74.379)" fill="#f1c229"/>
        <path id="Path_194" data-name="Path 194" d="M191.49,87.187V74.341h2.851V87.187Z" transform="translate(-179.801 -74.341)" fill="#f1c229"/>
        <path id="Path_195" data-name="Path 195" d="M202.932,78.09h2.851v8.87a17.537,17.537,0,0,1-4.244.476c-2.345,0-4.1-.745-4.1-3.722V78.09h2.851v4.926c0,1.2.365,1.632,1.362,1.632a4.925,4.925,0,0,0,1.283-.159Z" transform="translate(-179.868 -74.383)" fill="#f1c229"/>
        <path id="Path_196" data-name="Path 196" d="M209.039,86.9V74.341h2.851v3.421a11.227,11.227,0,0,1,1.361-.079,4.864,4.864,0,0,1,5.1,4.863c0,2.772-2.075,4.848-5.355,4.848A14.589,14.589,0,0,1,209.039,86.9Zm3.976-6.431a4.653,4.653,0,0,0-1.124.142v3.849a4.655,4.655,0,0,0,1.124.143c1.331,0,2.377-.555,2.377-2.059S214.345,80.471,213.015,80.471Z" transform="translate(-179.999 -74.341)" fill="#f1c229"/>
      </g>
    </g>
    <path id="Path_197" data-name="Path 197" d="M174.973,78.244l-2.849-8.419H160.9l2.807,8.419Z" transform="translate(-1.348 -0.585)" fill="#f1c229"/>
    <path id="Path_198" data-name="Path 198" d="M159.833,78.244l-2.849-8.419H146.224l2.807,8.419Z" transform="translate(-1.182 -0.585)" fill="#f1c229"/>
  </g>
</svg>
