<svg xmlns="http://www.w3.org/2000/svg" width="20.782" height="20.782" viewBox="0 0 20.782 20.782">
  <path id="chart_data_24dp_1F1F1F_FILL1_wght400_GRAD0_opsz24" d="M128.6-828.483l1.5,1.5a1.1,1.1,0,0,0,.808.318,1.1,1.1,0,0,0,.808-.318l3.29-3.291v.693a1.07,1.07,0,0,0,.332.808,1.144,1.144,0,0,0,.823.318,1.117,1.117,0,0,0,.823-.332,1.117,1.117,0,0,0,.332-.823v-3.464a1.117,1.117,0,0,0-.332-.823,1.117,1.117,0,0,0-.823-.332h-3.493a1.07,1.07,0,0,0-.808.332,1.144,1.144,0,0,0-.318.823,1.117,1.117,0,0,0,.332.823,1.117,1.117,0,0,0,.823.332h.664l-2.453,2.482-1.5-1.5a1.048,1.048,0,0,0-.808-.346,1.048,1.048,0,0,0-.808.346l-3.521,3.521a1.048,1.048,0,0,0-.346.808,1.048,1.048,0,0,0,.346.808,1.048,1.048,0,0,0,.808.346,1.048,1.048,0,0,0,.808-.346Zm-6.292,9.266a2.224,2.224,0,0,1-1.631-.678,2.223,2.223,0,0,1-.678-1.631v-16.164a2.224,2.224,0,0,1,.678-1.631,2.224,2.224,0,0,1,1.631-.678h16.164a2.223,2.223,0,0,1,1.631.678,2.224,2.224,0,0,1,.678,1.631v16.164a2.223,2.223,0,0,1-.678,1.631,2.224,2.224,0,0,1-1.631.678Z" transform="translate(-120 840)" fill="#fff" opacity="0.5"/>
</svg>
