<svg xmlns="http://www.w3.org/2000/svg" width="21.761" height="20.782" viewBox="0 0 21.761 20.782">
  <path id="star_24dp_1F1F1F_FILL1_wght400_GRAD0_opsz24" d="M148.419-799.589l-5.274,3.177a1.154,1.154,0,0,1-.731.191,1.228,1.228,0,0,1-.667-.254,1.523,1.523,0,0,1-.445-.556,1.111,1.111,0,0,1-.064-.747l1.4-6-4.67-4.035a1.218,1.218,0,0,1-.4-.651,1.265,1.265,0,0,1,.048-.715,1.361,1.361,0,0,1,.381-.572,1.321,1.321,0,0,1,.7-.286l6.164-.54,2.383-5.655a1.14,1.14,0,0,1,.492-.572,1.361,1.361,0,0,1,.683-.191,1.361,1.361,0,0,1,.683.191,1.14,1.14,0,0,1,.492.572l2.383,5.655,6.164.54a1.321,1.321,0,0,1,.7.286,1.361,1.361,0,0,1,.381.572,1.265,1.265,0,0,1,.048.715,1.218,1.218,0,0,1-.4.651l-4.67,4.035,1.4,6a1.111,1.111,0,0,1-.064.747,1.523,1.523,0,0,1-.445.556,1.228,1.228,0,0,1-.667.254,1.154,1.154,0,0,1-.731-.191Z" transform="translate(-137.539 817)" fill="#fff" opacity="0.5"/>
</svg>
