<svg xmlns="http://www.w3.org/2000/svg" width="19" height="20.782" viewBox="0 0 19 20.782">
  <path id="home_24dp_1F1F1F_FILL1_wght400_GRAD0_opsz24" d="M160-801.593v-10.688a2.358,2.358,0,0,1,.252-1.069,2.277,2.277,0,0,1,.7-.831l7.125-5.344A2.289,2.289,0,0,1,169.5-820a2.289,2.289,0,0,1,1.425.475l7.125,5.344a2.277,2.277,0,0,1,.7.831,2.358,2.358,0,0,1,.252,1.069v10.688a2.287,2.287,0,0,1-.7,1.677,2.287,2.287,0,0,1-1.677.7h-3.563a1.149,1.149,0,0,1-.846-.341,1.149,1.149,0,0,1-.341-.846v-5.938a1.149,1.149,0,0,0-.341-.846,1.149,1.149,0,0,0-.846-.341h-2.375a1.149,1.149,0,0,0-.846.341,1.149,1.149,0,0,0-.341.846v5.938a1.149,1.149,0,0,1-.341.846,1.149,1.149,0,0,1-.846.341h-3.563a2.287,2.287,0,0,1-1.677-.7A2.287,2.287,0,0,1,160-801.593Z" transform="translate(-160 820)" fill="#f1c229"/>
</svg>
