<svg id="Group_6470" data-name="Group 6470" xmlns="http://www.w3.org/2000/svg" width="85.681" height="33.665" viewBox="0 0 85.681 33.665">
  <g id="Group_4" data-name="Group 4" transform="translate(0 0)">
    <g id="Group_2" data-name="Group 2">
      <g id="Group_1" data-name="Group 1">
        <path id="Path_190" data-name="Path 190" d="M127.057,30.007a10.051,10.051,0,0,0-1.644-3.537A8.3,8.3,0,0,0,122.485,24a9.042,9.042,0,0,0-4.2-.92,9.921,9.921,0,0,0-3.934.758,9.357,9.357,0,0,0-3.064,2.074,8.806,8.806,0,0,0-.733.867l1.26-3.643H106.66l-4.04,13.186h-.073L98.5,23.135H93.034l6.519,19.1h5.618L108.6,32.4q-.012.262-.014.529a11.2,11.2,0,0,0,.654,3.969,8.94,8.94,0,0,0,1.9,3.1,8.294,8.294,0,0,0,3.022,2,10.872,10.872,0,0,0,4.016.7,10.037,10.037,0,0,0,5.491-1.444,8.474,8.474,0,0,0,3.291-4.531h-4.576a3.588,3.588,0,0,1-1.293,1.374,5.372,5.372,0,0,1-6.065-.342,5.112,5.112,0,0,1-1.26-3.609H127.4A13.005,13.005,0,0,0,127.057,30.007Zm-13.272.9a5.8,5.8,0,0,1,.244-1.227,3.782,3.782,0,0,1,.7-1.3,3.966,3.966,0,0,1,1.322-1.029,4.586,4.586,0,0,1,2.067-.414,3.655,3.655,0,0,1,2.827,1.011,5.854,5.854,0,0,1,1.281,2.958ZM65.217,28.942A4.5,4.5,0,0,1,66.6,27.5a3.689,3.689,0,0,1,2.085-.559A3.444,3.444,0,0,1,72.5,30.15a6.615,6.615,0,0,1,.043.935h5.037l-.011-.795a7.034,7.034,0,0,0-3.735-5.851,10.958,10.958,0,0,0-5.1-1.36,10.449,10.449,0,0,0-4.1.758,8.665,8.665,0,0,0-3.045,2.11,9.078,9.078,0,0,0-1.9,3.212c-.048.137-.093.276-.136.415l.006-1.191a4.423,4.423,0,0,0-.752-2.724,5.2,5.2,0,0,0-1.965-1.607,8.945,8.945,0,0,0-2.664-.776,21.5,21.5,0,0,0-2.886-.2,16.152,16.152,0,0,0-3.127.306,9.042,9.042,0,0,0-2.8,1.029,6.218,6.218,0,0,0-2.057,1.912,5.925,5.925,0,0,0-.931,2.995h5.19a2.9,2.9,0,0,1,1.036-2.165,3.991,3.991,0,0,1,2.415-.649,8.708,8.708,0,0,1,1.3.091,2.865,2.865,0,0,1,1.059.36,1.981,1.981,0,0,1,.727.758,2.684,2.684,0,0,1,.267,1.317,1.386,1.386,0,0,1-.482,1.208,3.564,3.564,0,0,1-1.393.632,14.1,14.1,0,0,1-2.011.325q-1.134.108-2.3.288a22.627,22.627,0,0,0-2.324.487,6.635,6.635,0,0,0-2.052.921,4.734,4.734,0,0,0-1.471,1.642,5.41,5.41,0,0,0-.582,2.616,5.778,5.778,0,0,0,.48,2.49,4.351,4.351,0,0,0,1.408,1.6,5.744,5.744,0,0,0,2.041,1.011,9.365,9.365,0,0,0,2.52.325,11.9,11.9,0,0,0,3.438-.506,6.5,6.5,0,0,0,2.888-1.682,8.1,8.1,0,0,0,.125.976,1.1,1.1,0,0,0,1.087.875h3.78V36.5c.057.177.118.351.185.523a8.858,8.858,0,0,0,1.92,3.013,8.558,8.558,0,0,0,3,1.966,10.417,10.417,0,0,0,3.889.7,9.615,9.615,0,0,0,6.624-2.44,7.316,7.316,0,0,0,2.435-5.048V34.173H72.545a6.624,6.624,0,0,1-.043.922,4.751,4.751,0,0,1-1.121,2.76,3.851,3.851,0,0,1-2.875,1.029,3.688,3.688,0,0,1-2.044-.541,4.031,4.031,0,0,1-1.326-1.39,6.265,6.265,0,0,1-.7-1.894A9.974,9.974,0,0,1,64.227,33a10.443,10.443,0,0,1,.231-2.11A6.211,6.211,0,0,1,65.217,28.942Zm-10.875,6.08a9.907,9.907,0,0,1-.1,1.155,3.862,3.862,0,0,1-.5,1.425,3.438,3.438,0,0,1-1.249,1.209,4.658,4.658,0,0,1-2.379.505,6.6,6.6,0,0,1-1.205-.109,2.946,2.946,0,0,1-1.021-.379,1.926,1.926,0,0,1-.69-.74,2.375,2.375,0,0,1-.25-1.155,2.472,2.472,0,0,1,.263-1.191,2.338,2.338,0,0,1,.68-.775,3.465,3.465,0,0,1,.989-.488,9.672,9.672,0,0,1,1.154-.289q.621-.107,1.243-.18t1.189-.18a8.6,8.6,0,0,0,1.061-.271,2.356,2.356,0,0,0,.825-.451ZM83.9,23.135h0l-1.69-5.05H79.269v1.5h0l-.018,2.383-.008,1.17-6.482-.04a8.4,8.4,0,0,1,4.727,4.127l1.729.04,0,.38-.057,10.375a4.7,4.7,0,0,0,.462,2.274,3.325,3.325,0,0,0,1.291,1.335,4.783,4.783,0,0,0,1.9.585l7.283,0L88.83,38.36c-.054,0-2.606.019-2.995-.053A3.048,3.048,0,0,1,84.79,38a1.931,1.931,0,0,1-.69-.74,2.678,2.678,0,0,1-.224-1.2c.007-1.14.043-8.521.011-8.869h3.357l4.88,15.068h5.364L91.025,23.135Z" transform="translate(-41.757 -18.085)" fill="#fff"/>
      </g>
    </g>
    <path id="Path_191" data-name="Path 191" d="M136.034,22.212l-1.4-4.127h-5.275l1.376,4.127Z" transform="translate(-86.903 -18.085)" fill="#fff"/>
    <path id="Path_192" data-name="Path 192" d="M150.9,22.212l-1.4-4.127H144.04l1.376,4.127Z" transform="translate(-94.466 -18.085)" fill="#fff"/>
    <g id="Group_3" data-name="Group 3" transform="translate(66.841 27.266)">
      <path id="Path_193" data-name="Path 193" d="M182.129,77.721a3.36,3.36,0,0,1,1.545.357l-.552,1.258a1.831,1.831,0,0,0-.932-.249,1.015,1.015,0,1,0,0,2.027,1.835,1.835,0,0,0,.932-.249l.552,1.258a3.354,3.354,0,0,1-1.545.358,2.382,2.382,0,1,1,0-4.76Z" transform="translate(-179.667 -76.083)" fill="#fff"/>
      <path id="Path_194" data-name="Path 194" d="M191.49,80.638v-6.3h1.4v6.3Z" transform="translate(-185.76 -74.341)" fill="#fff"/>
      <path id="Path_195" data-name="Path 195" d="M200.13,78.09h1.4v4.348a8.6,8.6,0,0,1-2.081.233c-1.15,0-2.012-.365-2.012-1.825V78.09h1.4V80.5c0,.59.179.8.668.8a2.415,2.415,0,0,0,.629-.078Z" transform="translate(-188.823 -76.273)" fill="#fff"/>
      <path id="Path_196" data-name="Path 196" d="M209.039,80.5V74.341h1.4v1.677a5.5,5.5,0,0,1,.667-.039,2.387,2.387,0,1,1-.124,4.76A7.151,7.151,0,0,1,209.039,80.5Zm1.949-3.153a2.281,2.281,0,0,0-.551.07V79.3a2.281,2.281,0,0,0,.551.07c.652,0,1.165-.272,1.165-1.01S211.64,77.346,210.988,77.346Z" transform="translate(-194.803 -74.341)" fill="#fff"/>
    </g>
  </g>
  <path id="Path_197" data-name="Path 197" d="M167.8,73.952l-1.4-4.127h-5.5l1.376,4.127Z" transform="translate(-103.155 -44.748)" fill="#fff"/>
  <path id="Path_198" data-name="Path 198" d="M152.9,73.952l-1.4-4.127h-5.275l1.376,4.127Z" transform="translate(-95.592 -44.748)" fill="#fff"/>
</svg>
