<svg xmlns="http://www.w3.org/2000/svg" width="17.181" height="21.476" viewBox="0 0 17.181 21.476">
  <path id="notifications_24dp_1F1F1F_FILL1_wght400_GRAD0_opsz24" d="M161.074-861.746a1.039,1.039,0,0,1-.765-.309,1.039,1.039,0,0,1-.309-.765,1.039,1.039,0,0,1,.309-.765,1.039,1.039,0,0,1,.765-.309h1.074v-7.516a6.288,6.288,0,0,1,1.342-3.96,6.194,6.194,0,0,1,3.49-2.268v-.752a1.553,1.553,0,0,1,.47-1.141,1.553,1.553,0,0,1,1.141-.47,1.553,1.553,0,0,1,1.141.47,1.554,1.554,0,0,1,.47,1.141v.752a6.194,6.194,0,0,1,3.49,2.268,6.288,6.288,0,0,1,1.342,3.96v7.516h1.074a1.039,1.039,0,0,1,.765.309,1.039,1.039,0,0,1,.309.765,1.039,1.039,0,0,1-.309.765,1.039,1.039,0,0,1-.765.309Zm7.516,3.221a2.068,2.068,0,0,1-1.517-.631,2.068,2.068,0,0,1-.631-1.517h4.3a2.068,2.068,0,0,1-.631,1.517A2.068,2.068,0,0,1,168.59-858.524Z" transform="translate(-160 880)" fill="#fff" opacity="0.5"/>
</svg>
